<svg width="68" height="56" viewBox="0 0 68 56" version="1.1" xmlns="http://www.w3.org/2000/svg" xmlns:xlink="http://www.w3.org/1999/xlink">
<title>tw</title>
<desc>Created using Figma</desc>
<g id="Canvas" transform="matrix(2 0 0 2 -4844 -8486)">
<g id="tw">
<use xlink:href="#path0_fill" transform="translate(2422 4243)" fill="#FFFFFF"/>
</g>
</g>
<defs>
<path id="path0_fill" d="M 34 3.31284C 32.7486 3.87502 31.4059 4.25628 29.9951 4.42649C 31.4356 3.55194 32.5383 2.16478 33.0609 0.516947C 31.7097 1.32684 30.2182 1.91492 28.6289 2.23372C 27.3563 0.857316 25.5462 1.06571e-07 23.5384 1.06571e-07C 19.6865 1.06571e-07 16.5633 3.1664 16.5633 7.06946C 16.5633 7.62302 16.6249 8.16368 16.7439 8.68068C 10.948 8.38554 5.80862 5.57027 2.36889 1.29237C 1.76761 2.33493 1.42556 3.54974 1.42556 4.8465C 1.42556 7.29994 2.65784 9.46472 4.52751 10.7312C 3.38445 10.6925 2.30939 10.3737 1.36822 9.84378L 1.36822 9.9321C 1.36822 13.357 3.77328 16.2153 6.96229 16.8659C 6.37801 17.0253 5.7619 17.1136 5.12451 17.1136C 4.67412 17.1136 4.23856 17.0684 3.81151 16.9822C 4.69956 19.7932 7.27462 21.8373 10.3256 21.8933C 7.93962 23.7889 4.93117 24.9154 1.66356 24.9154C 1.10056 24.9154 0.546001 24.881 2.63908e-12 24.8185C 3.08706 26.8282 6.75201 28 10.691 28C 23.5215 28 30.5348 17.2256 30.5348 7.88155L 30.5114 6.96611C 31.8818 5.97519 33.0673 4.73019 34 3.31284Z"/>
</defs>
</svg>
